<svg width="15" height="15" viewBox="0 0 15 15" fill="none" xmlns="http://www.w3.org/2000/svg">
<path d="M9 23V20C6 20 6 19.0708 6 17.5V15.266C6 13.9482 5 12.1964 2.76415 12.1964V11.8036C5 11.8036 6 9.50853 6 8.1908V5.95676C6 4.38596 6 4 9 4V1C5.15094 1 2.91509 1.28798 2.91509 5.95676V7.60611C2.91509 9.35145 2.17925 10.5 0 10.5V13.5C2.17925 13.5 2.91509 14.6486 2.91509 16.4026V18.0432C2.91509 22.712 5.15094 23 9 23Z" fill="#000" />
<path d="M15 0.999999L15 4C18 4 18 4.92919 18 6.5L18 8.73403C18 10.0518 19 11.8036 21.2358 11.8036L21.2358 12.1963C19 12.1963 18 14.4915 18 15.8092L18 18.0432C18 19.614 18 20 15 20L15 23C18.8491 23 21.0849 22.712 21.0849 18.0432L21.0849 16.3939C21.0849 14.6486 21.8208 13.5 24 13.5L24 10.5C21.8208 10.5 21.0849 9.35145 21.0849 7.59738L21.0849 5.95676C21.0849 1.28798 18.8491 1 15 0.999999Z" fill="#000"/>
<path d="M14 10.5H10.5L10.4344 11.5188C10.275 14.0594 9.77187 16.3656 9.5 17.5H12C12.45 16.3187 13.5 14 13.8781 11.5L14 10.5Z" fill="#000"/>
<path d="M14.25 7.49087C14.2409 8.60502 13.3227 9.5 12.25 9.5C11.141 9.5 10.241 8.60502 10.2501 7.49087C10.241 6.39498 11.141 5.5 12.25 5.5C13.3227 5.5 14.2409 6.39498 14.25 7.49087Z" fill="#000"/>
</svg>