<svg width="12" height="12" viewBox="0 0 12 12" fill="none" xmlns="http://www.w3.org/2000/svg">
<g clip-path="url(#clip0_101_4)">
<path d="M4.4392 12V10.6918C3.3294 10.6918 3.06493 10.2385 3.06493 9.25619V7.70719C3.06493 6.97048 2.77214 6.3471 1.49705 6.09208V5.91262C2.77214 5.65761 3.06493 5.02951 3.06493 4.29279V2.74379C3.06493 1.76623 3.3294 1.31286 4.4392 1.31286V-7.62939e-06C2.55018 -7.62939e-06 1.44038 0.476969 1.44038 2.60684V3.81109C1.44038 4.80283 1.07202 5.20896 0 5.20896V6.79574C1.07202 6.79574 1.44038 7.20188 1.44038 8.19362V9.39314C1.44038 11.523 2.55018 12 4.4392 12Z" fill="#647696"/>
<path d="M6.98438 6H5.48438L5.47656 6.4375C5.45313 7.5 5.12109 8.60156 5 9.04688H6.20313C6.39063 8.59375 6.85547 7.51563 6.94922 6.43359L6.98438 6ZM6.25 5.49609C6.78516 5.49609 7.25781 5.04297 7.26563 4.48047C7.25781 3.92578 6.78516 3.47656 6.25 3.47656C5.6875 3.47656 5.22656 3.92578 5.23438 4.48047C5.22656 5.04297 5.6875 5.49609 6.25 5.49609Z" fill="#A9B6CB"/>
<path d="M7.5608 -3.88087e-07L7.5608 1.30815C8.6706 1.30815 8.93507 1.76151 8.93507 2.7438L8.93507 4.2928C8.93507 5.02952 9.22786 5.65289 10.503 5.90791L10.503 6.08737C9.22786 6.34239 8.93507 6.97048 8.93507 7.7072L8.93507 9.2562C8.93507 10.2338 8.6706 10.6871 7.5608 10.6871L7.5608 12C9.44982 12 10.5596 11.523 10.5596 9.39315L10.5596 8.1889C10.5596 7.19717 10.928 6.79103 12 6.79103L12 5.20425C10.928 5.20425 10.5596 4.79811 10.5596 3.80638L10.5596 2.60685C10.5596 0.476978 9.44982 -2.22944e-07 7.5608 -3.88087e-07Z" fill="#647696"/>
</g>
<defs>
<clipPath id="clip0_101_4">
<rect width="12" height="12" fill="white"/>
</clipPath>
</defs>
</svg>
