<svg width="12" height="12" viewBox="0 0 12 12" fill="none" xmlns="http://www.w3.org/2000/svg">
<path d="M10.3548 4.476L10.1508 3.9816C10.8504 2.3676 10.8048 2.3196 10.668 2.1816L9.774 1.29L9.6852 1.2132H9.582C9.5268 1.2132 9.3648 1.2132 8.0052 1.842L7.5048 1.6356C6.858 0 6.792 0 6.6 0H5.3412C5.1516 0 5.0784 0 4.4796 1.6416L3.9816 1.848C3.0636 1.452 2.5248 1.248 2.3796 1.248H2.2596L1.2996 2.208C1.152 2.358 1.1004 2.4072 1.8408 3.996L1.6368 4.4892C0 5.1348 0 5.1972 0 5.4V6.6576C0 6.8556 0 6.9252 1.6428 7.5264L1.8468 8.0184C1.1472 9.6324 1.194 9.6804 1.3296 9.8184L2.2236 10.7112L2.3124 10.7892H2.4168C2.4708 10.7892 2.6316 10.7892 3.9924 10.1592L4.4916 10.3668C5.1384 12 5.2044 12 5.4 12H6.6564C6.8496 12 6.918 12 7.5192 10.3596L8.0196 10.1532C8.9376 10.5492 9.474 10.7532 9.6192 10.7532H9.7392L10.7088 9.7848C10.8468 9.6432 10.8948 9.594 10.1592 8.0112L10.362 7.518C12 6.8652 12 6.7968 12 6.6V5.3424C12 5.1444 12 5.0748 10.3548 4.476ZM6 8.0988C5.5844 8.09975 5.17787 7.97736 4.83187 7.74714C4.48587 7.51691 4.21596 7.1892 4.05632 6.80549C3.89667 6.42178 3.85447 5.99933 3.93506 5.59162C4.01564 5.18391 4.21538 4.80928 4.509 4.51516C4.80262 4.22103 5.17691 4.02065 5.58448 3.93936C5.99205 3.85808 6.41457 3.89956 6.79855 4.05854C7.18254 4.21753 7.51071 4.48687 7.74153 4.83248C7.97235 5.17808 8.09544 5.5844 8.0952 6C8.09425 6.55572 7.87332 7.08846 7.4807 7.48176C7.08808 7.87505 6.55572 8.0969 6 8.0988Z" fill="#647696"/>
</svg>
